<svg xmlns="http://www.w3.org/2000/svg" viewBox="0 0 2485.06 415.58"><g data-name="レイヤー 2"><g data-name="レイヤー 1"><path d="M1807.36 137.46h40.39l.44 40.81c8.49-15.36 16.5-25.59 28.15-33.63s25.25-12.06 40.8-12.06a63.94 63.94 0 019.62.81 42.84 42.84 0 019.35 2.44v41.74q-13-4.6-20.06-4.6a54 54 0 00-28.86 8.46c-7.8 5-23.77 27.61-28.34 36.6-4.28 8.43-11.4 26.26-11.4 36l.3 159.35h-40.39zM628.17 192.8q1.16-21.63 11.82-37.49a91.17 91.17 0 0127-26.24 120.51 120.51 0 0136.19-15.28 164.58 164.58 0 0139.51-4.9 185.47 185.47 0 0142.1 4.75 112.3 112.3 0 0136.34 15.14 78.34 78.34 0 0125.37 27q9.5 16.55 9.5 39.9v154.57a25.94 25.94 0 001.73 9.22 29.66 29.66 0 004.61 8.22 22.62 22.62 0 006.78 5.77 16.67 16.67 0 008.22 2.16 30.48 30.48 0 006.48-.72 75.63 75.63 0 007.65-2.16v35.47q-9.24 2.6-15.72 3.89a72.53 72.53 0 01-14.27 1.3q-18.75 0-31-13.84t-14-42.68q-13.85 18.12-27.4 29.27a122.76 122.76 0 01-27 17.16 102 102 0 01-27.1 8.07 191.43 191.43 0 01-27.83 2 98.94 98.94 0 01-34-5.77 80.37 80.37 0 01-27.53-16.58A78.16 78.16 0 01627.16 365a82.93 82.93 0 01-6.78-34q0-18.75 8.22-32.16a77.12 77.12 0 0121.77-22.92 141.8 141.8 0 0130.86-16.15q17.29-6.63 35.18-11.82t35.18-9.81a229.58 229.58 0 0030.85-10.38Q796 222 804.22 214.35a24.46 24.46 0 008.21-18.6q0-25.65-18.74-37.05t-52.19-11.46a113.5 113.5 0 00-24.66 2.59 67.07 67.07 0 00-20.62 8.08 50 50 0 00-15 14.13 47.35 47.35 0 00-7.79 20.76zm184.26 49q-8.94 9.52-23.5 15.86a287 287 0 01-31.14 11.39q-16.59 5.06-33.45 9.66a181.59 181.59 0 00-30.42 11.1q-13.56 6.5-22.06 15.72t-8.51 23.07q0 12.69 4.33 21.48a42.1 42.1 0 0011.53 14.57A46.11 46.11 0 00695.5 373a66.38 66.38 0 0018.31 2.59q27.11 0 52.92-16.29t45.7-50.3zM390.68 49.9V132h42.82v35h-42.82v178.9q0 9.23 2.3 15.32a23.3 23.3 0 0016 15 43.62 43.62 0 0012.34 1.63q4.06 0 8.53-.41a79.71 79.71 0 0010.44-1.76v33.34a106.16 106.16 0 01-16.67 3.25 155 155 0 01-18.3 1.09 76.93 76.93 0 01-21.14-2.85 48.21 48.21 0 01-17.75-9.21 44.21 44.21 0 01-12.2-16.4q-4.47-10-4.47-24.67V167h-42.84v-35h42.83V49.9zm88.49 87.56h40.39l.44 40.81c8.49-15.36 16.5-25.59 28.15-33.63s25.25-12.06 40.8-12.06a63.94 63.94 0 019.62.81 42.84 42.84 0 019.35 2.44v41.74q-13-4.6-20.06-4.6a54 54 0 00-28.86 8.46c-7.8 5-23.77 27.61-28.34 36.6-4.28 8.43-11.4 26.26-11.4 36l.3 159.35h-40.39zm535.61 227.69l81.59-227.69h43.1L1038.09 413.4h-44.45L891.45 137.46h43.91zm167.52-87.55a114.8 114.8 0 006.77 37.4 109.59 109.59 0 0017.76 32.12 88.92 88.92 0 0026.43 22.37 66.58 66.58 0 0032.79 8.4q59.64 0 78.88-55.3h37.14a112.49 112.49 0 01-15.72 38.63 110.35 110.35 0 01-26.7 28.46 119.57 119.57 0 01-34.43 17.62 126.23 126.23 0 01-39.17 6.1q-29 0-52.45-11.93a121.94 121.94 0 01-39.84-32.12 148.3 148.3 0 01-25.35-46.89 176.84 176.84 0 01-8.94-56.52 158.93 158.93 0 018.81-52.86 136.38 136.38 0 0125.21-44.32 120.92 120.92 0 0139.71-30.35q23.31-11.25 52.31-11.25 27.91 0 50.55 10.16a112.09 112.09 0 0138.49 28.06 124.71 124.71 0 0124.4 42.55 162.3 162.3 0 018.54 53.4v16.27zm163.17-31.72a98.63 98.63 0 00-6.37-32.53 75.79 75.79 0 00-42.28-43.77q-15-6.37-34-6.37a73.8 73.8 0 00-31.58 6.77 82.24 82.24 0 00-25.34 18.3 87.46 87.46 0 00-17.08 26.43 83.4 83.4 0 00-6.5 31.17zM1467.42 0v413.4H1427V0zm89.93 277.6a115.07 115.07 0 006.77 37.4 109.59 109.59 0 0017.76 32.12 89.17 89.17 0 0026.43 22.37 66.65 66.65 0 0032.8 8.4q59.63 0 78.88-55.3h37.13a112.3 112.3 0 01-15.72 38.63 110.18 110.18 0 01-26.7 28.46 119.44 119.44 0 01-34.43 17.62 126.22 126.22 0 01-39.16 6.1q-29 0-52.45-11.93a121.88 121.88 0 01-39.85-32.12 148.3 148.3 0 01-25.35-46.89 176.84 176.84 0 01-8.94-56.52 159.18 159.18 0 018.81-52.86 136.38 136.38 0 0125.21-44.32 121 121 0 0139.71-30.35q23.31-11.25 52.31-11.25 27.92 0 50.56 10.16a112.19 112.19 0 0138.49 28.06 124.85 124.85 0 0124.39 42.55 162.3 162.3 0 018.54 53.4v16.27zm163.18-31.72a99.14 99.14 0 00-6.37-32.53 75.85 75.85 0 00-42.29-43.77q-15-6.37-34-6.37a73.8 73.8 0 00-31.58 6.77 82.36 82.36 0 00-25.34 18.3 87.46 87.46 0 00-17.08 26.43 83.59 83.59 0 00-6.5 31.17zm248.62-96.77a136 136 0 0113.15-46.75 116.3 116.3 0 0127.1-35.78 117.87 117.87 0 0139.17-22.77q22.5-8 49.88-8 28.46 0 50 8.81t36.18 23.31a94.84 94.84 0 0122 33.34 106.53 106.53 0 017.32 38.9q0 23.31-8.54 41.47a131.85 131.85 0 01-22.5 33.34 219.09 219.09 0 01-32.12 28.46q-18.16 13.29-37.41 26.3-17.34 11.92-32.93 23.31a280.7 280.7 0 00-28.6 23.85 177.61 177.61 0 00-22.77 26.43 121.71 121.71 0 00-15.45 30.76h200.32v39.31h-244.26v-37.14a139.44 139.44 0 0119.11-41.74 236 236 0 0129.28-35.24 330.81 330.81 0 0135.1-30.22q18.71-14 36.32-26.16 15.72-10.83 30.77-22.09a238 238 0 0026.7-23 114.38 114.38 0 0018.7-24.4 53.36 53.36 0 007-26.43q0-19.51-5.83-34.28A70.42 70.42 0 002151 88a65.65 65.65 0 00-23.58-14.91 83 83 0 00-29-5 99.56 99.56 0 00-33.89 5.55 77.31 77.31 0 00-26.7 16 76.43 76.43 0 00-17.83 25.45 97.34 97.34 0 00-7.72 34zm515.91 75.63q0 43.65-8.27 78.47t-24.39 59.36q-16.14 24.54-40.26 37.68t-55.84 13.15q-31.71 0-55.7-13.15t-40.12-37.68q-16.12-24.52-24.26-59.36t-8.13-78.47q0-43.37 8.13-78.34t24.26-59.63q16.13-24.66 40.12-37.77t55.7-13.14q31.72 0 55.84 13.14t40.26 37.82q16.13 24.66 24.39 59.63t8.27 78.29zm-216.31 0q0 41.47 6.78 71t18.7 48.52q11.92 19 27.79 27.92a68.62 68.62 0 0034.28 8.94 69.45 69.45 0 0034.43-8.94q16-9 27.92-27.92t18.7-48.52q6.78-29.55 6.78-71t-6.78-71.16q-6.78-29.67-18.7-48.79t-27.92-28.19a68.65 68.65 0 00-34.43-9.08 67.84 67.84 0 00-34.3 9.08q-15.87 9.09-27.79 28.19t-18.7 48.79q-6.76 29.69-6.76 71.16z"/><path d="M2436.916 127.77l25.053 25.053-182.073 182.073-25.053-25.053z"/><path d="M2.15 353.22l238.37 52.59m0-52.59L2.15 405.81" fill="none" stroke="#050101" stroke-miterlimit="10" stroke-width="20"/><path d="M102.9 199.13c13.9 37.34 49.31 28.94 60.65 71.86 5.43 20.57-4.26 51.36-35.12 69.56 85.48-9.8 102.65-81.07 102.65-116 0-47.05-13.12-95.44-65.8-147.24 29.61 82 16.45 104.74-3.29 104.74-13.16 0-24.67-21.25-18.09-56.16s3.29-91.08-65.8-113.85c19.74 22.78 26.32 54.65 9.9 98.68s-76.4 56.51-76.4 124.82c0 70 38.16 94.15 74.35 107.81-28.83-40.6-29.84-69.54-3.54-96.61-6.07 28 13.65 57.27 26.3 52.27 14.16-5.6 13.15-22.4-2.31-39.49-11.86-13.1-15.06-35.77-3.5-60.39z" stroke="#c05d5d" stroke-linejoin="round" stroke-width="18" fill="none"/></g></g></svg>