<svg xmlns="http://www.w3.org/2000/svg" viewBox="0 0 242.68 412.53"><g data-name="レイヤー 2"><g data-name="レイヤー 1" fill="none"><path d="M2.15 350.17l238.37 52.6m0-52.6L2.15 402.77" stroke="#050101" stroke-miterlimit="10" stroke-width="20"/><path d="M102.9 196.08c13.9 37.34 49.31 28.92 60.65 71.92 5.43 20.56-4.26 51.35-35.12 69.55 85.48-9.8 102.65-81.07 102.65-116 0-47.06-13.12-95.44-65.8-147.25C194.89 156.24 181.73 179 162 179c-13.16 0-24.67-21.25-18.09-56.16S147.19 31.77 78.1 9c19.74 22.77 26.32 54.65 9.9 98.67s-76.4 56.51-76.4 124.82c0 70 38.16 94.15 74.35 107.81-28.83-40.6-29.84-69.54-3.54-96.61-6.07 28 13.65 57.28 26.3 52.27 14.16-5.6 13.15-22.4-2.31-39.49-11.86-13.1-15.06-35.76-3.5-60.39z" stroke="#c05d5d" stroke-linejoin="round" stroke-width="18"/></g></g></svg>