<svg xmlns="http://www.w3.org/2000/svg" viewBox="0 0 1058.02 646.35"><g data-name="レイヤー 2"><g data-name="レイヤー 1"><path d="M409.83 350.17l238.37 52.6m0-52.6l-238.37 52.6" fill="none" stroke="#050101" stroke-miterlimit="10" stroke-width="20"/><path d="M510.57 196.08c13.9 37.34 49.31 28.94 60.65 71.87 5.43 20.56-4.26 51.35-35.11 69.55 85.48-9.8 102.64-81.07 102.64-116 0-47.06-13.12-95.44-65.8-147.25 29.61 82 16.45 104.74-3.29 104.74-13.16 0-24.67-21.25-18.09-56.16S554.86 31.77 485.77 9c19.74 22.77 26.32 54.65 9.87 98.67s-76.37 56.51-76.37 124.82c0 70 38.16 94.15 74.35 107.81-28.83-40.6-29.84-69.54-3.54-96.61C484 271.7 503.74 301 516.38 296c14.16-5.6 13.15-22.4-2.31-39.49-11.86-13.14-15.07-35.8-3.5-60.43z" stroke="#c05d5d" stroke-linejoin="round" stroke-width="18" fill="none"/><path d="M728.83 512.31h19.62l.22 19.83c4.12-7.46 8-12.43 13.67-16.34a34.08 34.08 0 0119.82-5.86 30.15 30.15 0 014.67.4 21.08 21.08 0 014.55 1.18v20.28q-6.33-2.24-9.75-2.24a26.27 26.27 0 00-14 4.11c-3.79 2.44-11.54 13.41-13.76 17.78-2.09 4.09-5.54 12.76-5.54 17.5l.14 77.4h-19.64zM156.05 539.2a35.22 35.22 0 015.74-18.2 44.13 44.13 0 0113.1-12.75 58.21 58.21 0 0117.58-7.42 79.79 79.79 0 0119.19-2.39 90.18 90.18 0 0120.45 2.32 54.32 54.32 0 0117.64 7.35 38 38 0 0112.33 13.1q4.62 8.06 4.62 19.4v75.07a12.74 12.74 0 00.84 4.49 14.42 14.42 0 002.25 4 11 11 0 003.29 2.8 8.1 8.1 0 004 1 14.34 14.34 0 003.15-.35 35 35 0 003.71-1v17.23q-4.49 1.26-7.63 1.89a35.43 35.43 0 01-6.94.63 19.23 19.23 0 01-15.05-6.72q-6-6.74-6.8-20.73a84.14 84.14 0 01-13.3 14.21 59.4 59.4 0 01-13.1 8.34 49.24 49.24 0 01-13.17 3.92 93 93 0 01-13.51 1 47.9 47.9 0 01-16.53-2.8 39 39 0 01-13.38-8.06 38 38 0 01-9-12.67 40.26 40.26 0 01-3.3-16.53 29.33 29.33 0 014-15.62 37.4 37.4 0 0110.57-11.13 68.67 68.67 0 0115-7.85q8.4-3.21 17.09-5.74t17.11-4.8a113.54 113.54 0 0015-5.05 36 36 0 0010.57-6.51 11.86 11.86 0 004-9q0-12.47-9.1-18t-25.35-5.54a55.08 55.08 0 00-12 1.26 32.72 32.72 0 00-10 3.93 24.3 24.3 0 00-7.28 6.86A23 23 0 00178 539.2zm89.5 23.8a34 34 0 01-11.41 7.7 138 138 0 01-15.14 5.54q-8.06 2.46-16.25 4.7a87.85 87.85 0 00-14.75 5.39 34.79 34.79 0 00-10.73 7.67 15.89 15.89 0 00-4.13 11.21 23.44 23.44 0 002.1 10.43 20.44 20.44 0 005.6 7.08 22.28 22.28 0 007.91 4.06 32.32 32.32 0 008.9 1.26q13.15 0 25.7-7.91t22.2-24.45zM40.69 469.78v39.9h20.8v17h-20.8v86.91A21.35 21.35 0 0041.8 621a11.37 11.37 0 007.77 7.31 21.18 21.18 0 006 .79c1.32 0 2.7-.06 4.15-.2a38.73 38.73 0 005.07-.85v16.19a51 51 0 01-8.1 1.58 75.06 75.06 0 01-8.88.53A37.41 37.41 0 0137.53 645a23.47 23.47 0 01-8.63-4.48 21.38 21.38 0 01-5.92-8 29.4 29.4 0 01-2.18-12v-93.86H0v-17h20.8v-39.9zm42.98 42.53h19.62l.21 19.83c4.13-7.46 8-12.43 13.68-16.34a34.06 34.06 0 0119.82-5.86 30.15 30.15 0 014.67.4 20.83 20.83 0 014.54 1.18v20.28q-6.32-2.24-9.74-2.24a26.25 26.25 0 00-14 4.11c-3.79 2.44-11.55 13.41-13.77 17.78-2.08 4.09-5.54 12.76-5.54 17.5l.15 77.4H83.67zm260.17 110.6l39.63-110.6h20.94l-49.25 134h-21.59l-49.64-134h21.33zm81.37-42.52a56.09 56.09 0 003.29 18.17 53.18 53.18 0 008.63 15.6A43.24 43.24 0 00450 625a32.34 32.34 0 0015.93 4.08q29 0 38.31-26.86h18a54.32 54.32 0 01-7.63 18.78 53.4 53.4 0 01-13 13.83 58 58 0 01-16.72 8.56 61.51 61.51 0 01-19 3 55.39 55.39 0 01-25.48-5.79 59.27 59.27 0 01-19.35-15.6 72.06 72.06 0 01-12.31-22.77 86.07 86.07 0 01-4.34-27.46 77 77 0 014.28-25.67 66.16 66.16 0 0112.24-21.53 58.81 58.81 0 0119.29-14.75 57.76 57.76 0 0125.41-5.46 59.33 59.33 0 0124.56 4.94 54.51 54.51 0 0118.7 13.62 60.93 60.93 0 0111.85 20.68 78.91 78.91 0 014.14 25.94v7.9zM504.48 565a48 48 0 00-3.1-15.8 36.81 36.81 0 00-20.54-21.26 41.87 41.87 0 00-16.52-3.1 35.83 35.83 0 00-15.32 3.27 40 40 0 00-12.33 8.89 42.31 42.31 0 00-8.3 12.84 40.66 40.66 0 00-3.16 15.16zm59.23-119.46v200.81h-19.62V445.54zm43.68 134.85a56.09 56.09 0 003.29 18.17 53.18 53.18 0 008.63 15.6A43.24 43.24 0 00632.15 625a32.34 32.34 0 0015.93 4.08q29 0 38.31-26.86h18a54.32 54.32 0 01-7.6 18.78 53.4 53.4 0 01-13 13.83 58 58 0 01-16.72 8.56 61.51 61.51 0 01-19 3 55.39 55.39 0 01-25.48-5.79 59.27 59.27 0 01-19.35-15.6 72.06 72.06 0 01-12.31-22.77 86.07 86.07 0 01-4.34-27.46 77 77 0 014.28-25.67 66.16 66.16 0 0112.24-21.53 58.81 58.81 0 0119.29-14.75 57.76 57.76 0 0125.41-5.46 59.33 59.33 0 0124.56 4.94 54.51 54.51 0 0118.7 13.62 60.93 60.93 0 0111.85 20.68 78.91 78.91 0 014.14 25.94v7.9zM686.66 565a48 48 0 00-3.1-15.8A36.81 36.81 0 00663 527.92a41.87 41.87 0 00-16.52-3.1 35.83 35.83 0 00-15.34 3.29 40 40 0 00-12.29 8.89 42.31 42.31 0 00-8.3 12.84 40.66 40.66 0 00-3.16 15.16zm120.76-47a66.32 66.32 0 016.39-22.71A55.73 55.73 0 01846 466.82a71.94 71.94 0 0124.23-3.88q13.83 0 24.29 4.28a53.27 53.27 0 0117.58 11.32 46.11 46.11 0 0110.66 16.2 51.7 51.7 0 013.56 18.89 46.68 46.68 0 01-4.15 20.14A63.8 63.8 0 01911.24 550a106.25 106.25 0 01-15.6 13.83q-8.82 6.45-18.17 12.77-8.43 5.79-16 11.32a136.38 136.38 0 00-13.89 11.59 86.46 86.46 0 00-11.06 12.83 59 59 0 00-7.5 15h97.3v19.09H807.69v-18A67.37 67.37 0 01817 608a115 115 0 0114.22-17.12 159.73 159.73 0 0117-14.68q9.09-6.78 17.64-12.71 7.64-5.26 15-10.73a115.35 115.35 0 0013-11.19 55.59 55.59 0 009.08-11.85 26 26 0 003.43-12.84 45.09 45.09 0 00-2.84-16.65 34.08 34.08 0 00-7.7-12 32 32 0 00-11.51-7.23 40.39 40.39 0 00-14.09-2.43 48.29 48.29 0 00-16.46 2.7 37.6 37.6 0 00-13 7.76 37.12 37.12 0 00-8.69 12.38 47.29 47.29 0 00-3.72 16.59zM1058 554.71a165.41 165.41 0 01-4 38.12q-4 16.92-11.85 28.83a54.28 54.28 0 01-19.55 18.3q-11.73 6.39-27.13 6.39T968.42 640a54.49 54.49 0 01-19.48-18.3q-7.85-11.91-11.79-28.83a185.58 185.58 0 010-76.17q4-17 11.79-29a54.44 54.44 0 0119.48-18.37q11.66-6.37 27.06-6.38t27.13 6.38a54.23 54.23 0 0119.55 18.37q7.83 12 11.85 29a165.57 165.57 0 013.99 38.01zm-105.07 0q0 20.14 3.3 34.5t9.08 23.57q5.79 9.21 13.5 13.56a33.37 33.37 0 0016.65 4.34 33.76 33.76 0 0016.72-4.34q7.77-4.35 13.57-13.56t9.08-23.57q3.29-14.36 3.29-34.5t-3.29-34.56q-3.28-14.41-9.08-23.7t-13.57-13.7a33.31 33.31 0 00-16.72-4.41 32.92 32.92 0 00-16.65 4.41q-7.71 4.42-13.5 13.7t-9.08 23.7Q953 534.57 953 554.71z"/><path d="M1034.634 507.608l12.17 12.169-88.438 88.438-12.17-12.17z"/></g></g></svg>