<svg xmlns="http://www.w3.org/2000/svg" viewBox="0 0 2178.14 413.4"><g data-name="レイヤー 2"><g data-name="レイヤー 1"><path d="M1500.44 137.46h40.39l.44 40.81c8.49-15.36 16.5-25.59 28.16-33.63s25.25-12.06 40.79-12.06a63.94 63.94 0 019.62.81 42.69 42.69 0 019.35 2.44v41.74q-13-4.6-20-4.6a54 54 0 00-28.87 8.46c-7.8 5-23.77 27.61-28.34 36.6-4.28 8.43-11.4 26.26-11.4 36l.3 159.35h-40.39zM321.25 192.8q1.15-21.63 11.82-37.49a91.09 91.09 0 0127-26.24 120.41 120.41 0 0136.19-15.28 164.5 164.5 0 0139.5-4.9 185.47 185.47 0 0142.1 4.75 112.3 112.3 0 0136.34 15.14 78.34 78.34 0 0125.37 27q9.53 16.58 9.52 39.93v154.54a26.16 26.16 0 001.73 9.22 29.66 29.66 0 004.61 8.22 22.62 22.62 0 006.78 5.77 16.69 16.69 0 008.22 2.16 30.65 30.65 0 006.49-.72 76.26 76.26 0 007.64-2.16v35.47q-9.24 2.6-15.72 3.89a72.45 72.45 0 01-14.27 1.3q-18.75 0-31-13.84t-14-42.68q-13.85 18.12-27.41 29.27a122.71 122.71 0 01-27 17.16 102.15 102.15 0 01-27.11 8.07 191.43 191.43 0 01-27.83 2 98.88 98.88 0 01-34-5.77 80.32 80.32 0 01-27.54-16.58A78.3 78.3 0 01320.24 365a82.93 82.93 0 01-6.77-34q0-18.75 8.21-32.16a77 77 0 0121.78-22.92 141.72 141.72 0 0130.85-16.15q17.31-6.63 35.18-11.82t35.18-9.81a229.75 229.75 0 0030.86-10.38q13.55-5.76 21.77-13.41a24.43 24.43 0 008.22-18.6q0-25.65-18.75-37.05t-52.19-11.39a113.5 113.5 0 00-24.66 2.59 66.91 66.91 0 00-20.61 8.08 49.92 49.92 0 00-15 14.13 47.35 47.35 0 00-7.79 20.76zm184.27 49q-8.94 9.52-23.51 15.86a287 287 0 01-31.14 11.39q-16.59 5.06-33.45 9.66A181.59 181.59 0 00387 289.83a71.64 71.64 0 00-22.06 15.72q-8.51 9.24-8.51 23.07 0 12.69 4.33 21.48a42.1 42.1 0 0011.53 14.57 46.19 46.19 0 0016.29 8.33 66.4 66.4 0 0018.32 2.59q27.09 0 52.91-16.29t45.71-50.3zM83.76 49.9V132h42.83v35H83.76v178.9q0 9.23 2.3 15.32a23.3 23.3 0 0016 15 43.67 43.67 0 0012.34 1.63c2.71 0 5.55-.14 8.54-.41a79.59 79.59 0 0010.43-1.76v33.34a106.16 106.16 0 01-16.67 3.25 154.81 154.81 0 01-18.3 1.13 77 77 0 01-21.15-2.85 48.21 48.21 0 01-17.75-9.21 44.21 44.21 0 01-12.2-16.4q-4.47-10-4.47-24.67V167H0v-35h42.83V49.9zm88.49 87.56h40.39l.44 40.81c8.49-15.36 16.5-25.59 28.15-33.63s25.26-12.06 40.8-12.06a63.94 63.94 0 019.62.81 42.69 42.69 0 019.35 2.44v41.74Q288 173 281 173a54 54 0 00-28.87 8.46c-7.8 5-23.77 27.61-28.34 36.6-4.28 8.43-11.4 26.26-11.4 36l.3 159.35h-40.44zm535.61 227.69l81.59-227.69h43.1L731.17 413.4h-44.45L584.53 137.46h43.91zm167.52-87.55a115.07 115.07 0 006.77 37.4 109.59 109.59 0 0017.76 32.12 88.92 88.92 0 0026.43 22.37 66.65 66.65 0 0032.8 8.4q59.63 0 78.87-55.3h37.14a112.1 112.1 0 01-15.72 38.63 110.18 110.18 0 01-26.7 28.46 119.57 119.57 0 01-34.43 17.62 126.22 126.22 0 01-39.16 6.1q-29 0-52.46-11.93a121.94 121.94 0 01-39.84-32.12 148.3 148.3 0 01-25.35-46.89 176.84 176.84 0 01-8.94-56.52 158.93 158.93 0 018.81-52.86 136.38 136.38 0 0125.21-44.32 120.92 120.92 0 0139.71-30.35q23.31-11.25 52.31-11.25 27.92 0 50.56 10.16a112.19 112.19 0 0138.49 28.06 124.85 124.85 0 0124.36 42.55 162.3 162.3 0 018.54 53.4v16.27zm163.18-31.72a99.14 99.14 0 00-6.37-32.53 75.85 75.85 0 00-42.29-43.77q-15-6.37-34-6.37a73.8 73.8 0 00-31.6 6.79 82.36 82.36 0 00-25.3 18.28 87.46 87.46 0 00-17.08 26.43 83.59 83.59 0 00-6.5 31.17zM1160.5 0v413.4h-40.38V0zm89.93 277.6a114.81 114.81 0 006.78 37.4 109.34 109.34 0 0017.79 32.12 89.17 89.17 0 0026.43 22.37 66.65 66.65 0 0032.8 8.4q59.63 0 78.88-55.3h37.13a112.1 112.1 0 01-15.72 38.63 110.18 110.18 0 01-26.7 28.46 119.39 119.39 0 01-34.42 17.62 126.28 126.28 0 01-39.17 6.1q-29 0-52.45-11.93a122 122 0 01-39.85-32.12 148.28 148.28 0 01-25.34-46.89 176.57 176.57 0 01-9-56.52 159.18 159.18 0 018.81-52.86 136.56 136.56 0 0125.21-44.32 121 121 0 0139.71-30.35q23.31-11.25 52.32-11.25 27.91 0 50.55 10.16a112.09 112.09 0 0138.49 28.06 125 125 0 0124.4 42.55 162.3 162.3 0 018.53 53.4v16.27zm163.18-31.72a98.89 98.89 0 00-6.37-32.53 75.85 75.85 0 00-42.24-43.77q-15-6.37-34-6.37a73.72 73.72 0 00-31.57 6.77 82.4 82.4 0 00-25.35 18.3 87.24 87.24 0 00-17.07 26.43 83.61 83.61 0 00-6.51 31.17zm248.62-96.77a136.24 136.24 0 0113.15-46.75 116.3 116.3 0 0127.1-35.78 117.87 117.87 0 0139.17-22.77q22.5-8 49.88-8 28.46 0 50 8.81t36.19 23.31a95 95 0 0122 33.34 106.53 106.53 0 017.32 38.9q0 23.31-8.54 41.47A131.85 131.85 0 011876 215a218.57 218.57 0 01-32.12 28.46q-18.16 13.29-37.4 26.3-17.36 11.92-32.94 23.31a279.48 279.48 0 00-28.59 23.85 176.45 176.45 0 00-22.77 26.43 121.06 121.06 0 00-15.45 30.76H1907v39.29h-244.23v-37.14a139.44 139.44 0 0119.11-41.74 236 236 0 0129.28-35.24 330.81 330.81 0 0135.1-30.22q18.71-14 36.32-26.16 15.72-10.83 30.77-22.09a237.13 237.13 0 0026.7-23 114.06 114.06 0 0018.7-24.4 53.36 53.36 0 007-26.43q0-19.51-5.83-34.28a70.42 70.42 0 00-15.81-24.7 65.48 65.48 0 00-23.58-14.91 83 83 0 00-29-5 99.55 99.55 0 00-33.88 5.55 77.21 77.21 0 00-26.7 16 76.28 76.28 0 00-17.89 25.48 97.34 97.34 0 00-7.73 34zm515.91 75.63q0 43.65-8.27 78.47t-24.39 59.36q-16.12 24.54-40.25 37.68t-55.84 13.15q-31.72 0-55.71-13.15t-40.11-37.68q-16.14-24.52-24.26-59.36t-8.14-78.47q0-43.37 8.14-78.34t24.26-59.63q16.13-24.66 40.11-37.77t55.71-13.14q31.71 0 55.84 13.14t40.25 37.82q16.13 24.66 24.39 59.63t8.27 78.29zm-216.31 0q0 41.47 6.78 71t18.7 48.52q11.93 19 27.79 27.92a68.66 68.66 0 0034.29 8.94 69.42 69.42 0 0034.42-8.94q16-9 27.92-27.92t18.7-48.52q6.78-29.55 6.78-71t-6.78-71.16q-6.76-29.67-18.7-48.79t-27.92-28.19a68.62 68.62 0 00-34.42-9.08 67.87 67.87 0 00-34.29 9.08q-15.86 9.09-27.79 28.19t-18.7 48.79q-6.78 29.69-6.78 71.16z"/><path d="M2130.008 127.772l25.052 25.053-182.073 182.072-25.052-25.052z"/></g></g></svg>