<svg xmlns="http://www.w3.org/2000/svg" viewBox="0 0 242.68 412.53"><defs><style>.cls-1,.cls-2{fill:none;}.cls-1{stroke:#050101;stroke-miterlimit:10;stroke-width:20px;}.cls-2{stroke:#c05d5d;stroke-linejoin:round;stroke-width:18px;}</style></defs><g id="レイヤー_2" data-name="レイヤー 2"><g id="レイヤー_1-2" data-name="レイヤー 1"><line class="cls-1" x1="2.15" y1="350.17" x2="240.52" y2="402.77"/><line class="cls-1" x1="240.52" y1="350.17" x2="2.15" y2="402.77"/><path class="cls-2" d="M102.9,196.08C116.8,233.42,152.21,225,163.55,268c5.43,20.56-4.26,51.35-35.12,69.55,85.48-9.8,102.65-81.07,102.65-116,0-47.06-13.12-95.44-65.8-147.25C194.89,156.24,181.73,179,162,179c-13.16,0-24.67-21.25-18.09-56.16S147.19,31.77,78.1,9C97.84,31.77,104.42,63.65,88,107.67S11.6,164.18,11.6,232.49c0,70,38.16,94.15,74.35,107.81-28.83-40.6-29.84-69.54-3.54-96.61-6.07,28,13.65,57.28,26.3,52.27,14.16-5.6,13.15-22.4-2.31-39.49C94.54,243.37,91.34,220.71,102.9,196.08Z"/></g></g></svg>