<svg xmlns="http://www.w3.org/2000/svg" viewBox="0 0 2178.14 413.4"><g id="レイヤー_2" data-name="レイヤー 2"><g id="レイヤー_1-2" data-name="レイヤー 1"><path d="M1500.44,137.46h40.39l.44,40.81c8.49-15.36,16.5-25.59,28.16-33.63s25.25-12.06,40.79-12.06a63.94,63.94,0,0,1,9.62.81,42.69,42.69,0,0,1,9.35,2.44v41.74q-13-4.6-20-4.6a54,54,0,0,0-28.87,8.46c-7.8,5-23.77,27.61-28.34,36.6-4.28,8.43-11.4,26.26-11.4,36l.3,159.35h-40.39Z"/><path d="M321.25,192.8q1.15-21.63,11.82-37.49a91.09,91.09,0,0,1,27-26.24,120.41,120.41,0,0,1,36.19-15.28,164.5,164.5,0,0,1,39.5-4.9,185.47,185.47,0,0,1,42.1,4.75,112.3,112.3,0,0,1,36.34,15.14,78.34,78.34,0,0,1,25.37,27q9.53,16.58,9.52,39.93V350.25a26.16,26.16,0,0,0,1.73,9.22,29.66,29.66,0,0,0,4.61,8.22,22.62,22.62,0,0,0,6.78,5.77,16.69,16.69,0,0,0,8.22,2.16,30.65,30.65,0,0,0,6.49-.72,76.26,76.26,0,0,0,7.64-2.16v35.47q-9.24,2.6-15.72,3.89a72.45,72.45,0,0,1-14.27,1.3q-18.75,0-31-13.84t-14-42.68Q495.72,375,482.16,386.15a122.71,122.71,0,0,1-27,17.16,102.15,102.15,0,0,1-27.11,8.07,191.43,191.43,0,0,1-27.83,2,98.88,98.88,0,0,1-34-5.77,80.32,80.32,0,0,1-27.54-16.58A78.3,78.3,0,0,1,320.24,365a82.93,82.93,0,0,1-6.77-34q0-18.75,8.21-32.16a77,77,0,0,1,21.78-22.92,141.72,141.72,0,0,1,30.85-16.15q17.31-6.63,35.18-11.82t35.18-9.81a229.75,229.75,0,0,0,30.86-10.38q13.55-5.76,21.77-13.41a24.43,24.43,0,0,0,8.22-18.6q0-25.65-18.75-37.05t-52.19-11.39a113.5,113.5,0,0,0-24.66,2.59,66.91,66.91,0,0,0-20.61,8.08,49.92,49.92,0,0,0-15,14.13,47.35,47.35,0,0,0-7.79,20.76Zm184.27,49q-8.94,9.52-23.51,15.86a287,287,0,0,1-31.14,11.39q-16.59,5.06-33.45,9.66A181.59,181.59,0,0,0,387,289.83a71.64,71.64,0,0,0-22.06,15.72q-8.51,9.24-8.51,23.07,0,12.69,4.33,21.48a42.1,42.1,0,0,0,11.53,14.57A46.19,46.19,0,0,0,388.58,373a66.4,66.4,0,0,0,18.32,2.59q27.09,0,52.91-16.29T505.52,309Z"/><path d="M83.76,49.9V132h42.83v35H83.76V345.9q0,9.23,2.3,15.32a23.3,23.3,0,0,0,16,15,43.67,43.67,0,0,0,12.34,1.63c2.71,0,5.55-.14,8.54-.41a79.59,79.59,0,0,0,10.43-1.76v33.34a106.16,106.16,0,0,1-16.67,3.25A154.81,154.81,0,0,1,98.4,413.4a77,77,0,0,1-21.15-2.85,48.21,48.21,0,0,1-17.75-9.21,44.21,44.21,0,0,1-12.2-16.4q-4.47-10-4.47-24.67V167H0V132H42.83V49.9Z"/><path d="M172.25,137.46h40.39l.44,40.81c8.49-15.36,16.5-25.59,28.15-33.63s25.26-12.06,40.8-12.06a63.94,63.94,0,0,1,9.62.81,42.69,42.69,0,0,1,9.35,2.44v41.74Q288,173,281,173a54,54,0,0,0-28.87,8.46c-7.8,5-23.77,27.61-28.34,36.6-4.28,8.43-11.4,26.26-11.4,36l.3,159.35H172.25Z"/><path d="M707.86,365.15l81.59-227.69h43.1L731.17,413.4H686.72L584.53,137.46h43.91Z"/><path d="M875.38,277.6a115.07,115.07,0,0,0,6.77,37.4,109.59,109.59,0,0,0,17.76,32.12,88.92,88.92,0,0,0,26.43,22.37,66.65,66.65,0,0,0,32.8,8.4q59.63,0,78.87-55.3h37.14a112.1,112.1,0,0,1-15.72,38.63,110.18,110.18,0,0,1-26.7,28.46A119.57,119.57,0,0,1,998.3,407.3a126.22,126.22,0,0,1-39.16,6.1q-29,0-52.46-11.93a121.94,121.94,0,0,1-39.84-32.12,148.3,148.3,0,0,1-25.35-46.89,176.84,176.84,0,0,1-8.94-56.52,158.93,158.93,0,0,1,8.81-52.86,136.38,136.38,0,0,1,25.21-44.32,120.92,120.92,0,0,1,39.71-30.35q23.31-11.25,52.31-11.25,27.92,0,50.56,10.16a112.19,112.19,0,0,1,38.49,28.06A124.85,124.85,0,0,1,1072,207.93a162.3,162.3,0,0,1,8.54,53.4V277.6Zm163.18-31.72a99.14,99.14,0,0,0-6.37-32.53,75.85,75.85,0,0,0-42.29-43.77q-15-6.37-34-6.37A73.8,73.8,0,0,0,924.3,170,82.36,82.36,0,0,0,899,188.28a87.46,87.46,0,0,0-17.08,26.43,83.59,83.59,0,0,0-6.5,31.17Z"/><path d="M1160.5,0V413.4h-40.38V0Z"/><path d="M1250.43,277.6a114.81,114.81,0,0,0,6.78,37.4A109.34,109.34,0,0,0,1275,347.12a89.17,89.17,0,0,0,26.43,22.37,66.65,66.65,0,0,0,32.8,8.4q59.63,0,78.88-55.3h37.13a112.1,112.1,0,0,1-15.72,38.63,110.18,110.18,0,0,1-26.7,28.46,119.39,119.39,0,0,1-34.42,17.62,126.28,126.28,0,0,1-39.17,6.1q-29,0-52.45-11.93a122,122,0,0,1-39.85-32.12,148.28,148.28,0,0,1-25.34-46.89,176.57,176.57,0,0,1-9-56.52,159.18,159.18,0,0,1,8.81-52.86,136.56,136.56,0,0,1,25.21-44.32,121,121,0,0,1,39.71-30.35q23.31-11.25,52.32-11.25,27.91,0,50.55,10.16a112.09,112.09,0,0,1,38.49,28.06,125,125,0,0,1,24.4,42.55,162.3,162.3,0,0,1,8.53,53.4V277.6Zm163.18-31.72a98.89,98.89,0,0,0-6.37-32.53A75.85,75.85,0,0,0,1365,169.58q-15-6.37-34-6.37a73.72,73.72,0,0,0-31.57,6.77,82.4,82.4,0,0,0-25.35,18.3,87.24,87.24,0,0,0-17.07,26.43,83.61,83.61,0,0,0-6.51,31.17Z"/><path d="M1662.23,149.11a136.24,136.24,0,0,1,13.15-46.75,116.3,116.3,0,0,1,27.1-35.78,117.87,117.87,0,0,1,39.17-22.77q22.5-8,49.88-8,28.46,0,50,8.81t36.19,23.31a95,95,0,0,1,22,33.34,106.53,106.53,0,0,1,7.32,38.9q0,23.31-8.54,41.47A131.85,131.85,0,0,1,1876,215a218.57,218.57,0,0,1-32.12,28.46q-18.16,13.29-37.4,26.3-17.36,11.92-32.94,23.31a279.48,279.48,0,0,0-28.59,23.85,176.45,176.45,0,0,0-22.77,26.43,121.06,121.06,0,0,0-15.45,30.76H1907V413.4H1662.77V376.26a139.44,139.44,0,0,1,19.11-41.74,236,236,0,0,1,29.28-35.24,330.81,330.81,0,0,1,35.1-30.22q18.71-14,36.32-26.16,15.72-10.83,30.77-22.09a237.13,237.13,0,0,0,26.7-23,114.06,114.06,0,0,0,18.7-24.4,53.36,53.36,0,0,0,7-26.43q0-19.51-5.83-34.28A70.42,70.42,0,0,0,1844.11,88a65.48,65.48,0,0,0-23.58-14.91,83,83,0,0,0-29-5,99.55,99.55,0,0,0-33.88,5.55,77.21,77.21,0,0,0-26.7,16,76.28,76.28,0,0,0-17.89,25.48,97.34,97.34,0,0,0-7.73,34Z"/><path d="M2178.14,224.74q0,43.65-8.27,78.47t-24.39,59.36q-16.12,24.54-40.25,37.68t-55.84,13.15q-31.72,0-55.71-13.15t-40.11-37.68q-16.14-24.52-24.26-59.36t-8.14-78.47q0-43.37,8.14-78.34t24.26-59.63Q1969.7,62.11,1993.68,49t55.71-13.14q31.71,0,55.84,13.14t40.25,37.82q16.13,24.66,24.39,59.63T2178.14,224.74Zm-216.31,0q0,41.47,6.78,71t18.7,48.52q11.93,19,27.79,27.92a68.66,68.66,0,0,0,34.29,8.94,69.42,69.42,0,0,0,34.42-8.94q16-9,27.92-27.92t18.7-48.52q6.78-29.55,6.78-71t-6.78-71.16q-6.76-29.67-18.7-48.79T2083.81,76.6a68.62,68.62,0,0,0-34.42-9.08,67.87,67.87,0,0,0-34.29,9.08q-15.86,9.09-27.79,28.19t-18.7,48.79Q1961.83,183.27,1961.83,224.74Z"/><rect x="2033.78" y="102.59" width="35.43" height="257.49" transform="translate(764.45 -1382.87) rotate(45)"/></g></g></svg>